<?xml version="1.0" encoding="UTF-8"?>
<!DOCTYPE svg PUBLIC "-//W3C//DTD SVG 1.1//EN" "http://www.w3.org/Graphics/SVG/1.1/DTD/svg11.dtd">
<svg xmlns="http://www.w3.org/2000/svg" version="1.1" width="192px" height="192px" style="shape-rendering:geometricPrecision; text-rendering:geometricPrecision; image-rendering:optimizeQuality; fill-rule:evenodd; clip-rule:evenodd" xmlns:xlink="http://www.w3.org/1999/xlink">
<g><path style="opacity:0.871" fill="#51a5ae" d="M 85.5,-0.5 C 91.5,-0.5 97.5,-0.5 103.5,-0.5C 157.85,8.6883 186.85,40.855 190.5,96C 188.921,138.177 168.921,167.844 130.5,185C 122.541,187.821 114.541,189.987 106.5,191.5C 98.5,191.5 90.5,191.5 82.5,191.5C 45.7358,185.185 19.9025,164.852 5,130.5C 2.83236,124.469 0.999023,118.469 -0.5,112.5C -0.5,101.167 -0.5,89.8333 -0.5,78.5C 10.9423,33.3902 39.609,7.05683 85.5,-0.5 Z"/></g>
<g><path style="opacity:1" fill="#95d8df" d="M 84.5,8.5 C 129.827,6.73144 160.994,26.7314 178,68.5C 188.212,110.875 175.712,144.709 140.5,170C 99.183,191.625 62.0163,186.125 29,153.5C 6.97618,125.674 1.97618,95.0078 14,61.5C 28.1872,31.3348 51.6872,13.6681 84.5,8.5 Z"/></g>
<g><path style="opacity:1" fill="#f2f9fa" d="M 81.5,30.5 C 81.2704,34.2286 79.2704,36.0619 75.5,36C 76.9494,37.117 78.6161,37.7837 80.5,38C 78.4024,38.6776 76.4024,38.5109 74.5,37.5C 73.4634,35.2625 73.2967,32.9291 74,30.5C 76.6206,27.8598 79.1206,27.8598 81.5,30.5 Z"/></g>
<g><path style="opacity:1" fill="#f7fafa" d="M 136.5,55.5 C 132.339,59.274 127.673,62.6074 122.5,65.5C 120.259,64.9292 118.592,63.5958 117.5,61.5C 114.796,60.4278 112.13,59.4278 109.5,58.5C 109.768,60.099 109.434,61.4324 108.5,62.5C 108.719,61.325 108.386,60.325 107.5,59.5C 106.126,60.7113 104.626,61.7113 103,62.5C 99.303,59.7256 98.803,60.2256 101.5,64C 103.134,64.4935 104.801,64.6602 106.5,64.5C 103.099,66.096 100.099,65.4293 97.5,62.5C 97.3398,60.8008 97.5065,59.1341 98,57.5C 99.4813,56.5291 100.315,55.1958 100.5,53.5C 102.137,55.1162 103.971,56.4496 106,57.5C 107.667,57.1667 109.333,56.8333 111,56.5C 116.038,58.0273 121.205,59.0273 126.5,59.5C 130.013,59.4933 131.513,57.8266 131,54.5C 126.646,57.0726 122.646,56.4059 119,52.5C 118.311,53.3567 117.478,54.0233 116.5,54.5C 113.583,53.9338 110.583,53.9338 107.5,54.5C 106.527,50.2782 104.527,46.6116 101.5,43.5C 97.9683,45.251 94.3016,46.0843 90.5,46C 89.9288,44.7949 89.2621,43.6283 88.5,42.5C 84.2846,44.1632 81.7846,47.1632 81,51.5C 77.6433,52.7423 77.81,53.5756 81.5,54C 80.1667,54.6667 78.8333,54.6667 77.5,54C 77.05,51.4994 76.05,49.3328 74.5,47.5C 67.6945,47.0803 62.0278,49.2469 57.5,54C 60.4098,55.7533 63.0765,55.2533 65.5,52.5C 66.2811,53.7287 66.7811,55.062 67,56.5C 67.6708,57.2524 68.5041,57.5858 69.5,57.5C 69.5,59.5 69.5,61.5 69.5,63.5C 69.5,64.5 69.5,65.5 69.5,66.5C 68.8333,66.8333 68.1667,67.1667 67.5,67.5C 62.4652,71.9394 58.1319,71.2728 54.5,65.5C 53.6993,63.9582 53.366,62.2915 53.5,60.5C 54.2341,59.2921 54.5674,57.9587 54.5,56.5C 52.5,56.5 50.5,56.5 48.5,56.5C 48.3821,52.3095 50.3821,50.1428 54.5,50C 55.5853,47.828 56.9186,45.828 58.5,44C 62.9981,42.1435 67.6648,40.9768 72.5,40.5C 74.9201,40.2924 77.2534,40.6258 79.5,41.5C 81.4403,38.3886 84.1069,36.222 87.5,35C 88.2524,34.3292 88.5858,33.4959 88.5,32.5C 91.5834,29.0832 95.25,28.5832 99.5,31C 100.167,33 101.5,34.3333 103.5,35C 108.948,35.1392 114.281,34.8059 119.5,34C 121.286,34.7845 122.786,35.9512 124,37.5C 124.091,41.2533 124.258,44.92 124.5,48.5C 129.99,48.3305 133.99,50.6638 136.5,55.5 Z"/></g>
<g><path style="opacity:1" fill="#dce9ee" d="M 81.5,30.5 C 82.7472,34.8038 85.0806,35.4704 88.5,32.5C 88.5858,33.4959 88.2524,34.3292 87.5,35C 84.1069,36.222 81.4403,38.3886 79.5,41.5C 77.2534,40.6258 74.9201,40.2924 72.5,40.5C 73.1667,39.5 73.8333,38.5 74.5,37.5C 76.4024,38.5109 78.4024,38.6776 80.5,38C 78.6161,37.7837 76.9494,37.117 75.5,36C 79.2704,36.0619 81.2704,34.2286 81.5,30.5 Z"/></g>
<g><path style="opacity:1" fill="#b9ebf9" d="M 100.5,53.5 C 100.631,52.6236 100.298,51.9569 99.5,51.5C 96.187,53.7287 92.687,54.062 89,52.5C 88.1667,52.6667 87.3333,52.8333 86.5,53C 85.87,54.892 84.87,56.5587 83.5,58C 80.2847,58.5893 77.2847,58.0893 74.5,56.5C 73.2739,56.5195 72.2739,56.8529 71.5,57.5C 70.8333,57.5 70.1667,57.5 69.5,57.5C 68.5041,57.5858 67.6708,57.2524 67,56.5C 66.7811,55.062 66.2811,53.7287 65.5,52.5C 63.0765,55.2533 60.4098,55.7533 57.5,54C 62.0278,49.2469 67.6945,47.0803 74.5,47.5C 76.05,49.3328 77.05,51.4994 77.5,54C 78.8333,54.6667 80.1667,54.6667 81.5,54C 77.81,53.5756 77.6433,52.7423 81,51.5C 81.7846,47.1632 84.2846,44.1632 88.5,42.5C 89.2621,43.6283 89.9288,44.7949 90.5,46C 94.3016,46.0843 97.9683,45.251 101.5,43.5C 104.527,46.6116 106.527,50.2782 107.5,54.5C 110.583,53.9338 113.583,53.9338 116.5,54.5C 117.478,54.0233 118.311,53.3567 119,52.5C 122.646,56.4059 126.646,57.0726 131,54.5C 131.513,57.8266 130.013,59.4933 126.5,59.5C 121.205,59.0273 116.038,58.0273 111,56.5C 109.333,56.8333 107.667,57.1667 106,57.5C 103.971,56.4496 102.137,55.1162 100.5,53.5 Z"/></g>
<g><path style="opacity:1" fill="#c1ecf8" d="M 121.5,38.5 C 123.29,47.6457 119.79,49.9791 111,45.5C 110.312,44.6683 110.479,44.0016 111.5,43.5C 116.98,45.9346 120.313,44.268 121.5,38.5 Z"/></g>
<g><path style="opacity:1" fill="#f6f8f9" d="M 150.5,70.5 C 147.5,69.8333 144.5,69.1667 141.5,68.5C 139.439,64.281 137.773,59.9477 136.5,55.5C 139.666,55.2341 142.833,54.9008 146,54.5C 148.59,54.3757 150.923,55.0423 153,56.5C 154.088,61.5867 153.254,66.2533 150.5,70.5 Z"/></g>
<g><path style="opacity:1" fill="#f3f5f6" d="M 100.5,53.5 C 98.2532,53.9153 96.0865,54.5819 94,55.5C 91.5379,54.8405 89.0379,54.5072 86.5,54.5C 86.8752,59.4951 84.5418,61.4951 79.5,60.5C 77.4973,58.0181 74.8306,57.0181 71.5,57.5C 72.2739,56.8529 73.2739,56.5195 74.5,56.5C 77.2847,58.0893 80.2847,58.5893 83.5,58C 84.87,56.5587 85.87,54.892 86.5,53C 87.3333,52.8333 88.1667,52.6667 89,52.5C 92.687,54.062 96.187,53.7287 99.5,51.5C 100.298,51.9569 100.631,52.6236 100.5,53.5 Z"/></g>
<g><path style="opacity:1" fill="#fbddd8" d="M 69.5,57.5 C 70.1667,57.5 70.8333,57.5 71.5,57.5C 74.8306,57.0181 77.4973,58.0181 79.5,60.5C 76.5525,60.7771 73.7191,60.4438 71,59.5C 70.51,60.7932 70.3433,62.1266 70.5,63.5C 70.1667,63.5 69.8333,63.5 69.5,63.5C 69.5,61.5 69.5,59.5 69.5,57.5 Z"/></g>
<g><path style="opacity:1" fill="#fabab9" d="M 48.5,56.5 C 50.5,56.5 52.5,56.5 54.5,56.5C 54.5674,57.9587 54.2341,59.2921 53.5,60.5C 48.9329,62.8938 44.7663,65.8938 41,69.5C 40.6174,68.944 40.1174,68.6107 39.5,68.5C 39.5,67.1667 39.5,65.8333 39.5,64.5C 41.8949,61.1385 44.8949,58.4719 48.5,56.5 Z"/></g>
<g><path style="opacity:1" fill="#fcb9b8" d="M 100.5,53.5 C 100.315,55.1958 99.4813,56.5291 98,57.5C 97.5065,59.1341 97.3398,60.8008 97.5,62.5C 93.3861,63.8261 88.8861,64.4927 84,64.5C 79.3205,64.4991 74.8205,64.1658 70.5,63.5C 70.3433,62.1266 70.51,60.7932 71,59.5C 73.7191,60.4438 76.5525,60.7771 79.5,60.5C 84.5418,61.4951 86.8752,59.4951 86.5,54.5C 89.0379,54.5072 91.5379,54.8405 94,55.5C 96.0865,54.5819 98.2532,53.9153 100.5,53.5 Z"/></g>
<g><path style="opacity:1" fill="#fcdbd5" d="M 53.5,60.5 C 53.366,62.2915 53.6993,63.9582 54.5,65.5C 50.298,66.8633 47.1314,69.5299 45,73.5C 42.2161,79.9698 40.0495,86.6364 38.5,93.5C 37.8429,87.0061 37.5096,80.6727 37.5,74.5C 39.0808,72.8583 39.7475,70.8583 39.5,68.5C 40.1174,68.6107 40.6174,68.944 41,69.5C 44.7663,65.8938 48.9329,62.8938 53.5,60.5 Z"/></g>
<g><path style="opacity:1" fill="#c5edf6" d="M 108.5,62.5 C 108.167,63.5 107.5,64.1667 106.5,64.5C 104.801,64.6602 103.134,64.4935 101.5,64C 98.803,60.2256 99.303,59.7256 103,62.5C 104.626,61.7113 106.126,60.7113 107.5,59.5C 108.386,60.325 108.719,61.325 108.5,62.5 Z"/></g>
<g><path style="opacity:1" fill="#fdc1bc" d="M 136.5,55.5 C 137.773,59.9477 139.439,64.281 141.5,68.5C 139.897,68.3118 138.563,68.8118 137.5,70C 139.969,72.4411 141.802,75.2744 143,78.5C 143.909,84.6123 143.576,90.6123 142,96.5C 142.037,89.6523 141.037,82.9857 139,76.5C 137.233,73.228 134.733,70.8947 131.5,69.5C 134.632,68.9474 134.966,67.9474 132.5,66.5C 131.287,66.7472 130.62,67.4138 130.5,68.5C 110.236,66.7382 89.9031,66.0716 69.5,66.5C 69.5,65.5 69.5,64.5 69.5,63.5C 69.8333,63.5 70.1667,63.5 70.5,63.5C 74.8205,64.1658 79.3205,64.4991 84,64.5C 88.8861,64.4927 93.3861,63.8261 97.5,62.5C 100.099,65.4293 103.099,66.096 106.5,64.5C 107.5,64.1667 108.167,63.5 108.5,62.5C 109.434,61.4324 109.768,60.099 109.5,58.5C 112.13,59.4278 114.796,60.4278 117.5,61.5C 118.592,63.5958 120.259,64.9292 122.5,65.5C 127.673,62.6074 132.339,59.274 136.5,55.5 Z"/></g>
<g><path style="opacity:1" fill="#c0ecf8" d="M 67.5,67.5 C 64.8127,67.6641 62.146,67.4974 59.5,67C 56.8123,66.2177 55.8123,64.7177 56.5,62.5C 61.7629,65.9044 65.4295,64.5711 67.5,58.5C 68.5089,61.4726 68.5089,64.4726 67.5,67.5 Z"/></g>
<g><path style="opacity:1" fill="#beecf7" d="M 150.5,58.5 C 153.059,60.7933 153.059,63.2933 150.5,66C 147.833,66.6667 145.167,66.6667 142.5,66C 140.842,65.2747 140.342,64.108 141,62.5C 146.122,65.9055 149.288,64.5721 150.5,58.5 Z"/></g>
<g><path style="opacity:1" fill="#f2e5e3" d="M 131.5,69.5 C 130.833,69.5 130.5,69.1667 130.5,68.5C 130.62,67.4138 131.287,66.7472 132.5,66.5C 134.966,67.9474 134.632,68.9474 131.5,69.5 Z"/></g>
<g><path style="opacity:1" fill="#e8f3f6" d="M 39.5,64.5 C 39.5,65.8333 39.5,67.1667 39.5,68.5C 39.7475,70.8583 39.0808,72.8583 37.5,74.5C 35.8333,74.5 34.1667,74.5 32.5,74.5C 31.8826,74.3893 31.3826,74.056 31,73.5C 30.3333,71.5 30.3333,69.5 31,67.5C 33.6383,65.9649 36.4717,64.9649 39.5,64.5 Z"/></g>
<g><path style="opacity:1" fill="#fca7a8" d="M 134.5,85.5 C 135.813,93.8988 133.479,101.232 127.5,107.5C 126.209,107.263 125.209,107.596 124.5,108.5C 123.508,108.328 122.842,108.662 122.5,109.5C 120.97,110.067 119.47,110.733 118,111.5C 116.644,110.62 115.144,110.286 113.5,110.5C 108.833,106.5 104.167,106.5 99.5,110.5C 92.6457,110.824 85.979,110.491 79.5,109.5C 79.5,108.5 79.5,107.5 79.5,106.5C 77.3926,105.532 75.0593,105.198 72.5,105.5C 71.9744,103.77 70.9744,102.436 69.5,101.5C 77.5156,100.274 79.5156,96.1074 75.5,89C 72.8453,88.273 70.5119,87.1064 68.5,85.5C 68.9996,84.1195 69.9996,83.4528 71.5,83.5C 73.4534,84.1556 75.4534,84.4889 77.5,84.5C 77.67,83.1779 77.3366,82.0113 76.5,81C 71.5201,78.5287 67.3534,79.362 64,83.5C 63.0799,86.3083 63.9133,88.4749 66.5,90C 69.1677,90.567 71.8344,91.067 74.5,91.5C 74.9842,94.5666 73.8175,96.5666 71,97.5C 69.1397,95.7991 66.973,94.7991 64.5,94.5C 64.2525,96.8583 64.9192,98.8583 66.5,100.5C 62.4682,100.186 59.1348,101.519 56.5,104.5C 52.7611,96.2456 52.5945,87.9122 56,79.5C 58.1238,78.3783 59.9571,76.8783 61.5,75C 80.7994,73.4255 100.133,73.0922 119.5,74C 127.884,74.7185 132.718,79.2185 134,87.5C 134.464,86.9056 134.631,86.2389 134.5,85.5 Z"/></g>
<g><path style="opacity:1" fill="#fcb6b7" d="M 54.5,65.5 C 58.1319,71.2728 62.4652,71.9394 67.5,67.5C 68.1667,67.1667 68.8333,66.8333 69.5,66.5C 89.9031,66.0716 110.236,66.7382 130.5,68.5C 130.5,69.1667 130.833,69.5 131.5,69.5C 134.733,70.8947 137.233,73.228 139,76.5C 141.037,82.9857 142.037,89.6523 142,96.5C 143.576,90.6123 143.909,84.6123 143,78.5C 141.802,75.2744 139.969,72.4411 137.5,70C 138.563,68.8118 139.897,68.3118 141.5,68.5C 144.5,69.1667 147.5,69.8333 150.5,70.5C 150.5,71.1667 150.5,71.8333 150.5,72.5C 150.486,77.9511 150.32,83.6178 150,89.5C 149.79,91.0581 149.29,92.3915 148.5,93.5C 148.5,91.1667 148.5,88.8333 148.5,86.5C 147.5,86.5 146.5,86.5 145.5,86.5C 145.38,91.9369 144.546,97.2703 143,102.5C 141.933,104.692 140.433,106.358 138.5,107.5C 138.167,107.5 137.833,107.5 137.5,107.5C 136.152,106.814 134.985,105.814 134,104.5C 133.059,106.061 131.892,107.395 130.5,108.5C 129.583,107.873 128.583,107.539 127.5,107.5C 133.479,101.232 135.813,93.8988 134.5,85.5C 133.191,76.3618 127.857,71.5285 118.5,71C 98.8105,70.1707 79.1439,70.504 59.5,72C 51.1154,76.8092 47.9487,83.9759 50,93.5C 50.5781,97.6498 52.0781,101.316 54.5,104.5C 50.333,104.846 48.4997,107.18 49,111.5C 47.9805,112.687 46.8139,113.687 45.5,114.5C 44.3887,113.389 43.0554,112.722 41.5,112.5C 39.432,113.653 37.432,113.653 35.5,112.5C 30.2564,100.182 29.2564,87.5157 32.5,74.5C 34.1667,74.5 35.8333,74.5 37.5,74.5C 37.5096,80.6727 37.8429,87.0061 38.5,93.5C 40.0495,86.6364 42.2161,79.9698 45,73.5C 47.1314,69.5299 50.298,66.8633 54.5,65.5 Z"/></g>
<g><path style="opacity:1" fill="#f2979d" d="M 134.5,85.5 C 134.631,86.2389 134.464,86.9056 134,87.5C 132.718,79.2185 127.884,74.7185 119.5,74C 100.133,73.0922 80.7994,73.4255 61.5,75C 59.9571,76.8783 58.1238,78.3783 56,79.5C 52.5945,87.9122 52.7611,96.2456 56.5,104.5C 55.8333,104.5 55.1667,104.5 54.5,104.5C 52.0781,101.316 50.5781,97.6498 50,93.5C 47.9487,83.9759 51.1154,76.8092 59.5,72C 79.1439,70.504 98.8105,70.1707 118.5,71C 127.857,71.5285 133.191,76.3618 134.5,85.5 Z"/></g>
<g><path style="opacity:1" fill="#dfb2b9" d="M 151.5,74.5 C 152.924,76.5145 153.59,78.8478 153.5,81.5C 152.076,79.4855 151.41,77.1522 151.5,74.5 Z"/></g>
<g><path style="opacity:1" fill="#fcc3ba" d="M 113.5,78.5 C 118.126,77.7004 121.96,79.0337 125,82.5C 126.32,88.6804 123.82,91.6804 117.5,91.5C 117.5,93.8333 117.5,96.1667 117.5,98.5C 116.167,98.5 114.833,98.5 113.5,98.5C 112.293,91.7823 112.293,85.1156 113.5,78.5 Z"/></g>
<g><path style="opacity:1" fill="#ef989e" d="M 150.5,72.5 C 151.338,72.8417 151.672,73.5084 151.5,74.5C 151.41,77.1522 152.076,79.4855 153.5,81.5C 155.247,91.1218 154.247,100.455 150.5,109.5C 149.185,112.312 147.018,114.312 144,115.5C 142.991,117.025 142.491,118.692 142.5,120.5C 140.473,120.662 138.473,120.495 136.5,120C 135.944,119.617 135.611,119.117 135.5,118.5C 138.614,115.648 141.78,112.648 145,109.5C 147.343,104.447 148.51,99.1135 148.5,93.5C 149.29,92.3915 149.79,91.0581 150,89.5C 150.32,83.6178 150.486,77.9511 150.5,72.5 Z"/></g>
<g><path style="opacity:1" fill="#fcc3ba" d="M 98.5,79.5 C 101.044,79.1043 103.211,79.771 105,81.5C 107.768,87.2459 109.602,93.2459 110.5,99.5C 107.167,99.5 105.5,97.8333 105.5,94.5C 104.5,94.5 103.5,94.5 102.5,94.5C 103.401,98.2407 102.068,100.241 98.5,100.5C 98.5,93.5 98.5,86.5 98.5,79.5 Z"/></g>
<g><path style="opacity:1" fill="#fcc3bb" d="M 83.5,79.5 C 88.3851,78.8558 91.5518,80.8558 93,85.5C 94.007,90.1113 93.3403,94.4446 91,98.5C 90.2613,99.5742 89.2613,100.241 88,100.5C 85.3151,98.8252 83.3151,96.4918 82,93.5C 81.3492,88.7065 81.8492,84.0399 83.5,79.5 Z"/></g>
<g><path style="opacity:1" fill="#f8a5a5" d="M 86.5,85.5 C 87.7498,85.5774 88.5831,86.244 89,87.5C 89.8141,89.9018 89.6474,92.2351 88.5,94.5C 87.0678,91.6727 86.4012,88.6727 86.5,85.5 Z"/></g>
<g><path style="opacity:1" fill="#fcc3bb" d="M 69.5,101.5 C 68.391,101.443 67.391,101.11 66.5,100.5C 64.9192,98.8583 64.2525,96.8583 64.5,94.5C 66.973,94.7991 69.1397,95.7991 71,97.5C 73.8175,96.5666 74.9842,94.5666 74.5,91.5C 71.8344,91.067 69.1677,90.567 66.5,90C 63.9133,88.4749 63.0799,86.3083 64,83.5C 67.3534,79.362 71.5201,78.5287 76.5,81C 77.3366,82.0113 77.67,83.1779 77.5,84.5C 75.4534,84.4889 73.4534,84.1556 71.5,83.5C 69.9996,83.4528 68.9996,84.1195 68.5,85.5C 70.5119,87.1064 72.8453,88.273 75.5,89C 79.5156,96.1074 77.5156,100.274 69.5,101.5 Z"/></g>
<g><path style="opacity:1" fill="#fcc4bd" d="M 148.5,93.5 C 148.51,99.1135 147.343,104.447 145,109.5C 141.78,112.648 138.614,115.648 135.5,118.5C 132.272,118.299 129.105,118.633 126,119.5C 124.941,119.37 124.108,118.87 123.5,118C 125.382,117.802 127.048,117.302 128.5,116.5C 130.461,114.68 130.794,112.68 129.5,110.5C 128.365,108.787 126.698,108.12 124.5,108.5C 125.209,107.596 126.209,107.263 127.5,107.5C 128.583,107.539 129.583,107.873 130.5,108.5C 131.892,107.395 133.059,106.061 134,104.5C 134.985,105.814 136.152,106.814 137.5,107.5C 136.5,107.5 135.5,107.5 134.5,107.5C 134.5,108.833 134.5,110.167 134.5,111.5C 137.5,111.833 138.833,110.5 138.5,107.5C 140.433,106.358 141.933,104.692 143,102.5C 144.546,97.2703 145.38,91.9369 145.5,86.5C 146.5,86.5 147.5,86.5 148.5,86.5C 148.5,88.8333 148.5,91.1667 148.5,93.5 Z"/></g>
<g><path style="opacity:1" fill="#f3e7e8" d="M 41.5,102.5 C 44.5,102.167 45.8333,103.5 45.5,106.5C 43.8333,106.5 42.1667,106.5 40.5,106.5C 40.4326,105.041 40.7659,103.708 41.5,102.5 Z"/></g>
<g><path style="opacity:1" fill="#efedee" d="M 79.5,106.5 C 79.5,107.5 79.5,108.5 79.5,109.5C 76.6001,110.954 75.2668,109.954 75.5,106.5C 76.8333,106.5 78.1667,106.5 79.5,106.5 Z"/></g>
<g><path style="opacity:1" fill="#efeeee" d="M 137.5,107.5 C 137.833,107.5 138.167,107.5 138.5,107.5C 138.833,110.5 137.5,111.833 134.5,111.5C 134.5,110.167 134.5,108.833 134.5,107.5C 135.5,107.5 136.5,107.5 137.5,107.5 Z"/></g>
<g><path style="opacity:1" fill="#f9fbfb" d="M 66.5,100.5 C 67.391,101.11 68.391,101.443 69.5,101.5C 70.9744,102.436 71.9744,103.77 72.5,105.5C 72.5,107.5 72.5,109.5 72.5,111.5C 76.3539,111.594 79.0206,113.428 80.5,117C 81.7932,117.49 83.1266,117.657 84.5,117.5C 84.5,118.833 84.5,120.167 84.5,121.5C 85.0138,123.439 86.3472,124.439 88.5,124.5C 90.0377,124.547 91.0377,123.88 91.5,122.5C 94.5224,122.019 97.5224,121.353 100.5,120.5C 98.4064,117.291 98.0731,113.957 99.5,110.5C 104.167,106.5 108.833,106.5 113.5,110.5C 115.65,111.67 117.984,112.67 120.5,113.5C 121.705,112.423 122.372,111.09 122.5,109.5C 122.842,108.662 123.508,108.328 124.5,108.5C 126.698,108.12 128.365,108.787 129.5,110.5C 128.505,113.181 126.505,114.681 123.5,115C 124.905,116.269 126.571,116.769 128.5,116.5C 127.048,117.302 125.382,117.802 123.5,118C 124.108,118.87 124.941,119.37 126,119.5C 129.105,118.633 132.272,118.299 135.5,118.5C 135.611,119.117 135.944,119.617 136.5,120C 138.473,120.495 140.473,120.662 142.5,120.5C 142.491,118.692 142.991,117.025 144,115.5C 147.018,114.312 149.185,112.312 150.5,109.5C 150.5,110.833 150.5,112.167 150.5,113.5C 152.698,113.12 154.365,113.787 155.5,115.5C 154.7,117.896 153.7,120.229 152.5,122.5C 149.731,123.296 147.064,123.629 144.5,123.5C 145.09,124.799 146.09,125.632 147.5,126C 150.036,126.186 152.369,126.686 154.5,127.5C 153.13,127.856 152.13,128.69 151.5,130C 152.344,132.007 153.677,133.507 155.5,134.5C 154.5,135.167 153.5,135.833 152.5,136.5C 145.17,140.159 141.837,137.825 142.5,129.5C 138.111,129.304 134.111,127.971 130.5,125.5C 129.554,125.987 128.554,126.32 127.5,126.5C 125.608,125.527 123.608,124.86 121.5,124.5C 116.405,127.251 110.905,129.251 105,130.5C 102.438,128.782 99.605,127.782 96.5,127.5C 95.6537,130.527 94.3204,133.36 92.5,136C 90.0185,136.677 88.1851,135.844 87,133.5C 85.9339,136.563 83.7672,138.063 80.5,138C 81.9494,139.117 83.6161,139.784 85.5,140C 80,141.167 77.8333,139 79,133.5C 81.9656,131.516 81.799,129.516 78.5,127.5C 76.6414,129.192 74.6414,130.692 72.5,132C 69.4038,132.927 67.0704,131.927 65.5,129C 63.7444,128.798 62.0777,128.298 60.5,127.5C 62.664,124.55 62.8307,121.55 61,118.5C 58.5889,118.229 56.0889,118.562 53.5,119.5C 53.7394,121.467 53.4061,123.301 52.5,125C 48.5542,126.468 44.5542,127.634 40.5,128.5C 40.3048,132.192 38.3048,134.026 34.5,134C 33.035,135.774 31.7017,137.608 30.5,139.5C 29.8333,139.5 29.1667,139.5 28.5,139.5C 24.2471,130.762 26.9138,125.762 36.5,124.5C 35.8379,120.534 35.5045,116.534 35.5,112.5C 37.432,113.653 39.432,113.653 41.5,112.5C 43.0554,112.722 44.3887,113.389 45.5,114.5C 46.8139,113.687 47.9805,112.687 49,111.5C 48.4997,107.18 50.333,104.846 54.5,104.5C 55.1667,104.5 55.8333,104.5 56.5,104.5C 59.1348,101.519 62.4682,100.186 66.5,100.5 Z"/></g>
<g><path style="opacity:1" fill="#fac2c1" d="M 122.5,109.5 C 122.372,111.09 121.705,112.423 120.5,113.5C 117.984,112.67 115.65,111.67 113.5,110.5C 115.144,110.286 116.644,110.62 118,111.5C 119.47,110.733 120.97,110.067 122.5,109.5 Z"/></g>
<g><path style="opacity:1" fill="#c0ecf7" d="M 69.5,105.5 C 71.4837,112.347 68.8171,114.847 61.5,113C 59.7397,112.035 59.4063,110.868 60.5,109.5C 65.0949,111.59 68.0949,110.257 69.5,105.5 Z"/></g>
<g><path style="opacity:1" fill="#fbb9b9" d="M 72.5,105.5 C 75.0593,105.198 77.3926,105.532 79.5,106.5C 78.1667,106.5 76.8333,106.5 75.5,106.5C 75.2668,109.954 76.6001,110.954 79.5,109.5C 85.979,110.491 92.6457,110.824 99.5,110.5C 98.0731,113.957 98.4064,117.291 100.5,120.5C 97.5224,121.353 94.5224,122.019 91.5,122.5C 89.3926,121.532 87.0593,121.198 84.5,121.5C 84.5,120.167 84.5,118.833 84.5,117.5C 83.1266,117.657 81.7932,117.49 80.5,117C 79.0206,113.428 76.3539,111.594 72.5,111.5C 72.5,109.5 72.5,107.5 72.5,105.5 Z"/></g>
<g><path style="opacity:1" fill="#efeaeb" d="M 92.5,113.5 C 93.8333,113.5 95.1667,113.5 96.5,113.5C 96.8333,116.5 95.5,117.833 92.5,117.5C 92.5,116.167 92.5,114.833 92.5,113.5 Z"/></g>
<g><path style="opacity:1" fill="#d4edf4" d="M 129.5,110.5 C 130.794,112.68 130.461,114.68 128.5,116.5C 126.571,116.769 124.905,116.269 123.5,115C 126.505,114.681 128.505,113.181 129.5,110.5 Z"/></g>
<g><path style="opacity:1" fill="#bcebf7" d="M 110.5,111.5 C 112.893,113.762 113.06,116.428 111,119.5C 108.051,120.934 105.218,120.768 102.5,119C 107.596,119.07 110.262,116.57 110.5,111.5 Z"/></g>
<g><path style="opacity:1" fill="#c7eef6" d="M 44.5,115.5 C 46.2897,121.045 44.2897,123.045 38.5,121.5C 42.1861,121.147 44.1861,119.147 44.5,115.5 Z"/></g>
<g><path style="opacity:1" fill="#f19ea5" d="M 84.5,121.5 C 87.0593,121.198 89.3926,121.532 91.5,122.5C 91.0377,123.88 90.0377,124.547 88.5,124.5C 86.3472,124.439 85.0138,123.439 84.5,121.5 Z"/></g>
<g><path style="opacity:1" fill="#c9eef7" d="M 155.5,115.5 C 157.026,116.492 157.693,117.992 157.5,120C 157.548,123.044 156.548,125.544 154.5,127.5C 152.369,126.686 150.036,126.186 147.5,126C 146.09,125.632 145.09,124.799 144.5,123.5C 147.064,123.629 149.731,123.296 152.5,122.5C 153.7,120.229 154.7,117.896 155.5,115.5 Z"/></g>
<g><path style="opacity:1" fill="#b7eaf9" d="M 152.5,136.5 C 154.741,137.3 155.741,138.966 155.5,141.5C 150.489,141.666 145.489,141.499 140.5,141C 139.953,140.075 139.287,139.242 138.5,138.5C 137.167,139.5 135.833,140.5 134.5,141.5C 134.487,133.324 130.487,130.158 122.5,132C 119.156,133.894 117.822,136.727 118.5,140.5C 117.022,140.762 115.689,140.429 114.5,139.5C 113.396,137.611 112.063,135.945 110.5,134.5C 108.393,136.53 106.393,138.697 104.5,141C 101.593,141.854 99.2601,141.021 97.5,138.5C 96.1667,139.167 95.1667,140.167 94.5,141.5C 92.1725,142.724 89.8392,142.724 87.5,141.5C 84.2292,145.089 80.2292,146.256 75.5,145C 74.1279,143.758 73.1279,142.258 72.5,140.5C 69.5719,139.516 66.5719,139.183 63.5,139.5C 63.6633,137.143 63.4966,134.81 63,132.5C 60.901,131.534 59.0676,130.2 57.5,128.5C 54.9439,129.051 52.6106,130.051 50.5,131.5C 48.0472,134.241 45.7139,137.075 43.5,140C 41.1009,140.711 38.7676,140.544 36.5,139.5C 34.3224,142.038 32.3224,142.038 30.5,139.5C 31.7017,137.608 33.035,135.774 34.5,134C 38.3048,134.026 40.3048,132.192 40.5,128.5C 44.5542,127.634 48.5542,126.468 52.5,125C 53.4061,123.301 53.7394,121.467 53.5,119.5C 56.0889,118.562 58.5889,118.229 61,118.5C 62.8307,121.55 62.664,124.55 60.5,127.5C 62.0777,128.298 63.7444,128.798 65.5,129C 67.0704,131.927 69.4038,132.927 72.5,132C 74.6414,130.692 76.6414,129.192 78.5,127.5C 81.799,129.516 81.9656,131.516 79,133.5C 77.8333,139 80,141.167 85.5,140C 83.6161,139.784 81.9494,139.117 80.5,138C 83.7672,138.063 85.9339,136.563 87,133.5C 88.1851,135.844 90.0185,136.677 92.5,136C 94.3204,133.36 95.6537,130.527 96.5,127.5C 99.605,127.782 102.438,128.782 105,130.5C 110.905,129.251 116.405,127.251 121.5,124.5C 123.608,124.86 125.608,125.527 127.5,126.5C 128.554,126.32 129.554,125.987 130.5,125.5C 134.111,127.971 138.111,129.304 142.5,129.5C 141.837,137.825 145.17,140.159 152.5,136.5 Z"/></g>
<g><path style="opacity:1" fill="#f3fafb" d="M 152.5,136.5 C 153.5,135.833 154.5,135.167 155.5,134.5C 156.117,134.611 156.617,134.944 157,135.5C 157.497,138.146 157.664,140.813 157.5,143.5C 152.799,143.352 148.132,143.685 143.5,144.5C 141.202,144.268 139.035,143.601 137,142.5C 133.306,144.217 129.639,145.883 126,147.5C 120.214,145.607 114.881,142.94 110,139.5C 107.558,140.97 105.058,142.304 102.5,143.5C 99.6063,140.801 96.9396,140.968 94.5,144C 88.809,144.439 83.309,145.605 78,147.5C 74.5068,148.22 72.3402,146.887 71.5,143.5C 65.937,142.895 60.437,143.562 55,145.5C 51.1708,145.172 48.6708,143.172 47.5,139.5C 44.4602,141.935 40.9602,142.935 37,142.5C 34.8333,142.333 32.6667,142.167 30.5,142C 29.6195,141.292 28.9528,140.458 28.5,139.5C 29.1667,139.5 29.8333,139.5 30.5,139.5C 32.3224,142.038 34.3224,142.038 36.5,139.5C 38.7676,140.544 41.1009,140.711 43.5,140C 45.7139,137.075 48.0472,134.241 50.5,131.5C 52.6106,130.051 54.9439,129.051 57.5,128.5C 59.0676,130.2 60.901,131.534 63,132.5C 63.4966,134.81 63.6633,137.143 63.5,139.5C 66.5719,139.183 69.5719,139.516 72.5,140.5C 73.1279,142.258 74.1279,143.758 75.5,145C 80.2292,146.256 84.2292,145.089 87.5,141.5C 89.8392,142.724 92.1725,142.724 94.5,141.5C 95.1667,140.167 96.1667,139.167 97.5,138.5C 99.2601,141.021 101.593,141.854 104.5,141C 106.393,138.697 108.393,136.53 110.5,134.5C 112.063,135.945 113.396,137.611 114.5,139.5C 115.689,140.429 117.022,140.762 118.5,140.5C 117.822,136.727 119.156,133.894 122.5,132C 130.487,130.158 134.487,133.324 134.5,141.5C 135.833,140.5 137.167,139.5 138.5,138.5C 139.287,139.242 139.953,140.075 140.5,141C 145.489,141.499 150.489,141.666 155.5,141.5C 155.741,138.966 154.741,137.3 152.5,136.5 Z"/></g>
<g><path style="opacity:1" fill="#bbeaf6" d="M 60.5,133.5 C 63.0001,140.839 60.3334,143.673 52.5,142C 49.8009,139.457 49.8009,138.79 52.5,140C 57.0545,140.288 59.7212,138.121 60.5,133.5 Z"/></g>
<g><path style="opacity:1" fill="#bcecf7" d="M 130.5,136.5 C 133.059,138.793 133.059,141.293 130.5,144C 127.007,145.004 123.841,144.504 121,142.5C 120.312,141.668 120.479,141.002 121.5,140.5C 126.437,143.839 129.437,142.506 130.5,136.5 Z"/></g>
</svg>
